<svg xmlns="http://www.w3.org/2000/svg" version="1.1" width="14.707999999999998in" height="10.472in" viewBox = " 0 0 1323.7199999999998 942.4799999999999" >
<!-- Front--> 
<g transform="translate(90, 90) " > 
<polygon style="stroke:#000000; fill:none; stroke-width:0.9" points="0, 0 76.24799999999999, 0 76.24799999999999, 10.62 152.49599999999998, 10.62 152.49599999999998, 0 228.74399999999997, 0 228.74399999999997, 10.62 304.99199999999996, 10.62 304.99199999999996, 0 381.23999999999995, 0 381.23999999999995, 76.24799999999999 370.61999999999995, 76.24799999999999 370.61999999999995, 152.49599999999998 381.23999999999995, 152.49599999999998 381.23999999999995, 228.74399999999997 370.61999999999995, 228.74399999999997 370.61999999999995, 304.99199999999996 381.23999999999995, 304.99199999999996 381.23999999999995, 381.23999999999995 304.99199999999996, 381.23999999999995 304.99199999999996, 370.61999999999995 228.74399999999997, 370.61999999999995 228.74399999999997, 381.23999999999995 152.49599999999998, 381.23999999999995 152.49599999999998, 370.61999999999995 76.24799999999999, 370.61999999999995 76.24799999999999, 381.23999999999995 0, 381.23999999999995 0, 304.99199999999996 10.62, 304.99199999999996 10.62, 228.74399999999997 0, 228.74399999999997 0, 152.49599999999998 10.62, 152.49599999999998 10.62, 76.24799999999999 0, 76.24799999999999 "/> 
</g>
<!-- Back--> 
<g transform="translate(471.23999999999995, 90) " > 
<polygon style="stroke:#000000; fill:none; stroke-width:0.9" points="0, 0 76.24799999999999, 0 76.24799999999999, 10.62 152.49599999999998, 10.62 152.49599999999998, 0 228.74399999999997, 0 228.74399999999997, 10.62 304.99199999999996, 10.62 304.99199999999996, 0 381.23999999999995, 0 381.23999999999995, 76.24799999999999 370.61999999999995, 76.24799999999999 370.61999999999995, 152.49599999999998 381.23999999999995, 152.49599999999998 381.23999999999995, 228.74399999999997 370.61999999999995, 228.74399999999997 370.61999999999995, 304.99199999999996 381.23999999999995, 304.99199999999996 381.23999999999995, 381.23999999999995 304.99199999999996, 381.23999999999995 304.99199999999996, 370.61999999999995 228.74399999999997, 370.61999999999995 228.74399999999997, 381.23999999999995 152.49599999999998, 381.23999999999995 152.49599999999998, 370.61999999999995 76.24799999999999, 370.61999999999995 76.24799999999999, 381.23999999999995 0, 381.23999999999995 0, 304.99199999999996 10.62, 304.99199999999996 10.62, 228.74399999999997 0, 228.74399999999997 0, 152.49599999999998 10.62, 152.49599999999998 10.62, 76.24799999999999 0, 76.24799999999999 "/> 
</g>
<!-- Left--> 
<g transform="translate(852.4799999999999, 90) " > 
<polygon style="stroke:#000000; fill:none; stroke-width:0.9" points="10.62, 0 76.24799999999999, 0 76.24799999999999, 10.62 152.49599999999998, 10.62 152.49599999999998, 0 228.74399999999997, 0 228.74399999999997, 10.62 304.99199999999996, 10.62 304.99199999999996, 0 370.61999999999995, 0 370.61999999999995, 76.24799999999999 381.23999999999995, 76.24799999999999 381.23999999999995, 152.49599999999998 370.61999999999995, 152.49599999999998 370.61999999999995, 228.74399999999997 381.23999999999995, 228.74399999999997 381.23999999999995, 304.99199999999996 370.61999999999995, 304.99199999999996 370.61999999999995, 381.23999999999995 304.99199999999996, 381.23999999999995 304.99199999999996, 370.61999999999995 228.74399999999997, 370.61999999999995 228.74399999999997, 381.23999999999995 152.49599999999998, 381.23999999999995 152.49599999999998, 370.61999999999995 76.24799999999999, 370.61999999999995 76.24799999999999, 381.23999999999995 10.62, 381.23999999999995 10.62, 304.99199999999996 0, 304.99199999999996 0, 228.74399999999997 10.62, 228.74399999999997 10.62, 152.49599999999998 0, 152.49599999999998 0, 76.24799999999999 10.62, 76.24799999999999 "/> 
</g>
<!-- Right--> 
<g transform="translate(852.4799999999999, 471.23999999999995) " > 
<polygon style="stroke:#000000; fill:none; stroke-width:0.9" points="10.62, 0 76.24799999999999, 0 76.24799999999999, 10.62 152.49599999999998, 10.62 152.49599999999998, 0 228.74399999999997, 0 228.74399999999997, 10.62 304.99199999999996, 10.62 304.99199999999996, 0 370.61999999999995, 0 370.61999999999995, 76.24799999999999 381.23999999999995, 76.24799999999999 381.23999999999995, 152.49599999999998 370.61999999999995, 152.49599999999998 370.61999999999995, 228.74399999999997 381.23999999999995, 228.74399999999997 381.23999999999995, 304.99199999999996 370.61999999999995, 304.99199999999996 370.61999999999995, 381.23999999999995 304.99199999999996, 381.23999999999995 304.99199999999996, 370.61999999999995 228.74399999999997, 370.61999999999995 228.74399999999997, 381.23999999999995 152.49599999999998, 381.23999999999995 152.49599999999998, 370.61999999999995 76.24799999999999, 370.61999999999995 76.24799999999999, 381.23999999999995 10.62, 381.23999999999995 10.62, 304.99199999999996 0, 304.99199999999996 0, 228.74399999999997 10.62, 228.74399999999997 10.62, 152.49599999999998 0, 152.49599999999998 0, 76.24799999999999 10.62, 76.24799999999999 "/> 
</g>
<!-- Top--> 
<g transform="translate(90, 471.23999999999995) " > 
<polygon style="stroke:#000000; fill:none; stroke-width:0.9" points="10.62, 10.62 76.24799999999999, 10.62 76.24799999999999, 0 152.49599999999998, 0 152.49599999999998, 10.62 228.74399999999997, 10.62 228.74399999999997, 0 304.99199999999996, 0 304.99199999999996, 10.62 370.61999999999995, 10.62 370.61999999999995, 76.24799999999999 381.23999999999995, 76.24799999999999 381.23999999999995, 152.49599999999998 370.61999999999995, 152.49599999999998 370.61999999999995, 228.74399999999997 381.23999999999995, 228.74399999999997 381.23999999999995, 304.99199999999996 370.61999999999995, 304.99199999999996 370.61999999999995, 370.61999999999995 304.99199999999996, 370.61999999999995 304.99199999999996, 381.23999999999995 228.74399999999997, 381.23999999999995 228.74399999999997, 370.61999999999995 152.49599999999998, 370.61999999999995 152.49599999999998, 381.23999999999995 76.24799999999999, 381.23999999999995 76.24799999999999, 370.61999999999995 10.62, 370.61999999999995 10.62, 304.99199999999996 0, 304.99199999999996 0, 228.74399999999997 10.62, 228.74399999999997 10.62, 152.49599999999998 0, 152.49599999999998 0, 76.24799999999999 10.62, 76.24799999999999 "/> 
</g>
<!-- Bottom--> 
<g transform="translate(471.23999999999995, 471.23999999999995) " > 
<polygon style="stroke:#000000; fill:none; stroke-width:0.9" points="10.62, 10.62 76.24799999999999, 10.62 76.24799999999999, 0 152.49599999999998, 0 152.49599999999998, 10.62 228.74399999999997, 10.62 228.74399999999997, 0 304.99199999999996, 0 304.99199999999996, 10.62 370.61999999999995, 10.62 370.61999999999995, 76.24799999999999 381.23999999999995, 76.24799999999999 381.23999999999995, 152.49599999999998 370.61999999999995, 152.49599999999998 370.61999999999995, 228.74399999999997 381.23999999999995, 228.74399999999997 381.23999999999995, 304.99199999999996 370.61999999999995, 304.99199999999996 370.61999999999995, 370.61999999999995 304.99199999999996, 370.61999999999995 304.99199999999996, 381.23999999999995 228.74399999999997, 381.23999999999995 228.74399999999997, 370.61999999999995 152.49599999999998, 370.61999999999995 152.49599999999998, 381.23999999999995 76.24799999999999, 381.23999999999995 76.24799999999999, 370.61999999999995 10.62, 370.61999999999995 10.62, 304.99199999999996 0, 304.99199999999996 0, 228.74399999999997 10.62, 228.74399999999997 10.62, 152.49599999999998 0, 152.49599999999998 0, 76.24799999999999 10.62, 76.24799999999999 "/> 
</g></svg>